<?xml version="1.0" encoding="utf-8"?>
<!-- Generator: Adobe Illustrator 18.1.0, SVG Export Plug-In . SVG Version: 6.00 Build 0)  -->
<svg version="1.1" id="Layer_1" xmlns="http://www.w3.org/2000/svg" xmlns:xlink="http://www.w3.org/1999/xlink" x="0px" y="0px"
	 viewBox="0 0 793.701 48.635" enable-background="new 0 0 793.701 48.635" xml:space="preserve">
<rect x="0" y="-0.001" fill="#09ADD8" width="793.701" height="48.85"/>
<g>
	<rect x="196.224" y="19.441" fill="#64BC46" width="3.85" height="3.855"/>
	<rect x="184.674" y="19.477" fill="#64BC46" width="3.851" height="3.853"/>
	<rect x="192.374" y="19.477" fill="#64BC46" width="3.85" height="3.853"/>
	<rect x="200.074" y="19.477" fill="#64BC46" width="3.85" height="3.853"/>
	<rect x="184.674" y="15.605" fill="#64BC46" width="3.851" height="3.855"/>
	<rect x="188.525" y="15.605" fill="#64BC46" width="3.85" height="3.855"/>
	<rect x="176.981" y="19.477" fill="#64BC46" width="3.851" height="3.853"/>
	<rect x="176.981" y="15.605" fill="#64BC46" width="3.851" height="3.855"/>
	<rect x="180.832" y="15.605" fill="#64BC46" width="3.85" height="3.855"/>
	<rect x="192.374" y="15.605" fill="#64BC46" width="3.85" height="3.855"/>
	<rect x="200.074" y="15.605" fill="#64BC46" width="3.85" height="3.855"/>
	<rect x="192.374" y="11.739" fill="#64BC46" width="3.85" height="3.855"/>
	<rect x="200.074" y="11.739" fill="#64BC46" width="3.85" height="3.855"/>
	<rect x="192.374" y="7.886" fill="#64BC46" width="3.85" height="3.853"/>
	<rect x="196.224" y="7.886" fill="#64BC46" width="3.85" height="3.853"/>
</g>
<rect x="200.074" y="7.886" fill="#64BC46" width="3.85" height="3.853"/>
<g>
	<rect x="180.828" y="25.815" fill="#FFFFFF" width="3.85" height="3.855"/>
	<rect x="192.378" y="25.78" fill="#FFFFFF" width="3.851" height="3.854"/>
	<rect x="184.678" y="25.78" fill="#FFFFFF" width="3.85" height="3.854"/>
	<rect x="176.978" y="25.78" fill="#FFFFFF" width="3.85" height="3.854"/>
	<rect x="192.378" y="29.651" fill="#FFFFFF" width="3.851" height="3.854"/>
	<rect x="188.528" y="29.651" fill="#FFFFFF" width="3.85" height="3.854"/>
	<rect x="200.071" y="25.78" fill="#FFFFFF" width="3.85" height="3.854"/>
	<rect x="200.071" y="29.651" fill="#FFFFFF" width="3.85" height="3.854"/>
	<rect x="196.221" y="29.651" fill="#FFFFFF" width="3.85" height="3.854"/>
	<rect x="184.678" y="29.651" fill="#FFFFFF" width="3.85" height="3.854"/>
	<rect x="176.978" y="29.651" fill="#FFFFFF" width="3.85" height="3.854"/>
	<rect x="184.678" y="33.516" fill="#FFFFFF" width="3.85" height="3.855"/>
	<rect x="176.978" y="33.516" fill="#FFFFFF" width="3.85" height="3.855"/>
	<rect x="184.678" y="37.37" fill="#FFFFFF" width="3.85" height="3.855"/>
	<rect x="180.828" y="37.37" fill="#FFFFFF" width="3.85" height="3.855"/>
</g>
<rect x="176.978" y="37.37" fill="#FFFFFF" width="3.85" height="3.855"/>
<polygon fill="#FFFFFF" points="216.059,9.177 208.409,9.177 208.409,16.837 208.409,24.487 208.409,32.137 208.409,39.796 
	216.059,39.796 223.724,39.796 231.372,39.796 231.372,32.137 223.724,32.137 216.059,32.137 216.059,24.487 216.059,16.837 
	223.724,16.837 231.372,16.837 231.372,9.177 223.724,9.177 "/>
<path fill="#FFFFFF" d="M246.671,9.177h-7.649v7.66v7.65v7.65v7.659h7.649v-7.659h7.665v-7.64h7.648v-7.661v-7.66h-7.648H246.671z
	 M254.334,24.478h-7.663v-7.641h7.663V24.478z"/>
<rect x="254.334" y="32.137" fill="#FFFFFF" width="7.65" height="7.659"/>
<polygon fill="#FFFFFF" points="284.948,16.837 284.948,24.478 277.3,24.478 277.3,16.829 277.284,16.829 277.284,9.177 
	269.635,9.177 269.635,16.829 269.635,16.837 269.635,24.478 269.635,32.137 277.284,32.137 277.3,32.137 284.948,32.137 
	284.948,39.796 292.598,39.796 292.598,32.137 292.598,24.487 292.598,16.837 292.598,9.177 284.948,9.177 "/>
<path fill="#FFFFFF" d="M307.895,9.177h-7.648v7.66v7.65v7.65v7.659h7.648v-7.659h7.666h7.648v-7.659v-7.641v-0.008V9.177h-7.648
	H307.895z M315.561,24.478h-7.666v-7.641h7.666V24.478z"/>
<polygon fill="#FFFFFF" points="338.512,9.177 330.859,9.177 330.859,16.837 338.512,16.837 338.523,16.837 338.523,24.487 
	338.523,32.137 338.523,39.796 346.172,39.796 346.172,32.137 346.172,24.487 346.172,16.837 353.825,16.837 353.825,9.177 
	346.172,9.177 "/>
<path fill="#FFFFFF" d="M423.312,9.117h-7.65v7.646v7.649v7.663v7.657h7.65v-7.657h7.667v7.657h7.647v-7.657v-7.663v-7.649V9.117
	h-7.647H423.312z M430.979,24.413h-7.667v-7.649h7.667V24.413z"/>
<path fill="#FFFFFF" d="M392.701,9.117h-7.65v7.646v7.649v7.663v7.657h7.65v-7.657h7.663h7.648v-7.663v-7.649v-0.009V9.117h-7.648
	H392.701z M400.364,24.413h-7.662v-7.649h7.662V24.413z"/>
<polygon fill="#FFFFFF" points="484.538,9.117 476.89,9.117 476.89,16.764 484.538,16.764 484.555,16.764 484.555,24.413 
	484.555,32.075 484.555,39.732 492.205,39.732 492.205,32.075 492.205,24.413 492.205,16.764 499.852,16.764 499.852,9.117 
	492.205,9.117 "/>
<path fill="#FFFFFF" d="M453.927,9.117h-7.648v7.646v7.649v7.663v7.657h7.648v-7.657h7.665v-7.652h7.647v-7.649v-0.01V9.117h-7.647
	H453.927L453.927,9.117z M461.592,16.773v7.639h-7.665v-7.649h7.665V16.773z"/>
<rect x="461.591" y="32.075" fill="#FFFFFF" width="7.648" height="7.657"/>
<polygon fill="#FFFFFF" points="522.817,9.117 522.817,16.764 522.817,24.413 515.167,24.413 515.167,16.753 515.15,16.753 
	515.15,9.117 507.502,9.117 507.502,16.753 507.502,16.764 507.502,24.413 507.502,32.075 515.15,32.075 515.167,32.075 
	522.817,32.075 522.817,39.732 530.464,39.732 530.464,32.075 530.464,24.413 530.464,16.764 530.464,9.117 "/>
<rect x="364.452" y="32.066" fill="#64BC46" width="7.648" height="7.66"/>
<rect x="372.1" y="32.137" fill="#64BC46" width="7.649" height="7.659"/>
<rect x="356.804" y="32.137" fill="#64BC46" width="7.646" height="7.659"/>
<rect x="372.1" y="24.456" fill="#64BC46" width="7.649" height="7.66"/>
<rect x="356.804" y="24.456" fill="#64BC46" width="7.646" height="7.66"/>
<rect x="372.1" y="16.766" fill="#64BC46" width="7.649" height="7.659"/>
<rect x="356.804" y="16.766" fill="#64BC46" width="7.646" height="7.659"/>
<rect x="372.1" y="9.106" fill="#64BC46" width="7.649" height="7.66"/>
<rect x="364.452" y="9.106" fill="#64BC46" width="7.648" height="7.66"/>
<rect x="356.804" y="9.106" fill="#64BC46" width="7.646" height="7.66"/>
<g>
	<g>
		<path fill="#FFFFFF" d="M556.019,23.623c0.082,0,0.152,0.029,0.209,0.086l0.492,0.528c-0.36,0.385-0.754,0.73-1.179,1.038
			c-0.426,0.307-0.891,0.569-1.394,0.786c-0.504,0.217-1.056,0.385-1.658,0.504c-0.602,0.118-1.263,0.178-1.983,0.178
			c-1.204,0-2.307-0.211-3.311-0.633c-1.003-0.422-1.863-1.02-2.579-1.793c-0.717-0.774-1.276-1.709-1.677-2.807
			c-0.401-1.097-0.602-2.317-0.602-3.66c0-1.318,0.206-2.522,0.62-3.611c0.413-1.089,0.995-2.025,1.744-2.807
			c0.749-0.781,1.646-1.388,2.69-1.818c1.044-0.429,2.196-0.645,3.458-0.645c0.63,0,1.208,0.047,1.732,0.142
			c0.524,0.094,1.013,0.229,1.468,0.405c0.455,0.176,0.882,0.395,1.283,0.657c0.401,0.262,0.795,0.565,1.179,0.909l-0.38,0.552
			c-0.066,0.098-0.168,0.148-0.307,0.148c-0.074,0-0.168-0.043-0.282-0.129c-0.115-0.086-0.26-0.193-0.437-0.319
			c-0.176-0.127-0.389-0.266-0.638-0.418c-0.25-0.151-0.547-0.29-0.891-0.417c-0.344-0.127-0.741-0.233-1.192-0.32
			c-0.45-0.086-0.962-0.129-1.535-0.129c-1.056,0-2.027,0.182-2.911,0.547c-0.884,0.364-1.646,0.884-2.284,1.56
			c-0.639,0.675-1.136,1.495-1.492,2.457s-0.534,2.041-0.534,3.236c0,1.228,0.176,2.326,0.528,3.292
			c0.351,0.966,0.839,1.783,1.462,2.451c0.622,0.668,1.357,1.179,2.205,1.535c0.847,0.356,1.766,0.534,2.758,0.534
			c0.622,0,1.177-0.041,1.664-0.122c0.487-0.082,0.935-0.205,1.345-0.369c0.41-0.164,0.791-0.364,1.143-0.602
			c0.352-0.238,0.7-0.516,1.044-0.835c0.041-0.032,0.08-0.059,0.116-0.08C555.927,23.633,555.97,23.623,556.019,23.623z"/>
		<path fill="#FFFFFF" d="M562.394,26.546h-1.265V9.166h1.265V26.546z"/>
		<path fill="#FFFFFF" d="M579.369,9.166v1.069h-6.104v16.311h-1.253V10.235h-6.141V9.166H579.369z"/>
		<path fill="#FFFFFF" d="M587.794,19.373v7.173h-1.265v-7.173l-6.424-10.207h1.093c0.115,0,0.206,0.026,0.276,0.08
			c0.069,0.053,0.137,0.129,0.202,0.227l4.975,7.984c0.115,0.188,0.213,0.371,0.294,0.546c0.082,0.176,0.156,0.354,0.221,0.534
			c0.065-0.18,0.139-0.358,0.221-0.534c0.082-0.176,0.18-0.358,0.294-0.546l4.962-7.984c0.049-0.09,0.11-0.164,0.184-0.221
			c0.074-0.057,0.168-0.086,0.282-0.086h1.106L587.794,19.373z"/>
	</g>
	<g>
		<path fill="#FFFFFF" d="M562.499,36.173v4.124h-0.728v-4.124l-3.694-5.869h0.629c0.066,0,0.119,0.016,0.159,0.046
			c0.04,0.031,0.079,0.074,0.117,0.13l2.86,4.591c0.066,0.108,0.122,0.213,0.17,0.314c0.047,0.101,0.089,0.203,0.127,0.307
			c0.037-0.104,0.08-0.206,0.127-0.307c0.047-0.101,0.103-0.206,0.169-0.314l2.854-4.591c0.028-0.052,0.064-0.094,0.106-0.127
			c0.043-0.032,0.097-0.049,0.163-0.049h0.636L562.499,36.173z"/>
		<path fill="#FFFFFF" d="M573.841,30.304v0.6h-5.262v4.04h4.379v0.586h-4.379v4.167h5.262v0.6h-5.989v-9.994H573.841z"/>
		<path fill="#FFFFFF" d="M583.721,40.297h-0.558c-0.066,0-0.12-0.017-0.163-0.053c-0.042-0.035-0.075-0.082-0.099-0.138
			l-1.179-2.903h-4.909l-1.172,2.903c-0.019,0.052-0.052,0.097-0.099,0.134c-0.047,0.038-0.104,0.056-0.17,0.056h-0.551l4.089-9.994
			h0.72L583.721,40.297z M577.034,36.667h4.478l-2.042-5.05c-0.033-0.08-0.066-0.17-0.099-0.272
			c-0.033-0.101-0.066-0.208-0.098-0.321c-0.033,0.113-0.067,0.22-0.099,0.321c-0.033,0.101-0.066,0.194-0.099,0.279L577.034,36.667
			z"/>
		<path fill="#FFFFFF" d="M586.236,35.777v4.52h-0.72v-9.994h2.549c1.154,0,2.015,0.223,2.585,0.668
			c0.57,0.445,0.855,1.098,0.855,1.96c0,0.381-0.066,0.73-0.197,1.045c-0.132,0.316-0.321,0.593-0.569,0.83
			c-0.248,0.238-0.545,0.434-0.894,0.587s-0.742,0.253-1.18,0.3c0.113,0.071,0.214,0.165,0.304,0.282l3.44,4.322h-0.629
			c-0.076,0-0.14-0.014-0.194-0.043c-0.055-0.028-0.107-0.075-0.159-0.141l-3.2-4.054c-0.08-0.103-0.166-0.176-0.258-0.219
			c-0.092-0.042-0.234-0.064-0.427-0.064H586.236z M586.236,35.24h1.737c0.443,0,0.84-0.053,1.19-0.159
			c0.35-0.106,0.647-0.257,0.889-0.455c0.243-0.198,0.428-0.435,0.555-0.714c0.127-0.278,0.191-0.591,0.191-0.939
			c0-0.711-0.233-1.238-0.699-1.582c-0.466-0.344-1.144-0.515-2.034-0.515h-1.829V35.24z"/>
	</g>
</g>
</svg>
