<?xml version="1.0" encoding="utf-8"?>
<!-- Generator: Adobe Illustrator 18.1.0, SVG Export Plug-In . SVG Version: 6.00 Build 0)  -->
<svg version="1.1" id="Layer_1" xmlns="http://www.w3.org/2000/svg" xmlns:xlink="http://www.w3.org/1999/xlink" x="0px" y="0px"
	 viewBox="0 0 793.701 48.635" enable-background="new 0 0 793.701 48.635" xml:space="preserve">
<rect x="0" y="-0.001" fill="#09ADD8" width="793.701" height="48.85"/>
<g>
	<rect x="196.224" y="19.441" fill="#64BC46" width="3.85" height="3.855"/>
	<rect x="184.674" y="19.477" fill="#64BC46" width="3.851" height="3.853"/>
	<rect x="192.374" y="19.477" fill="#64BC46" width="3.85" height="3.853"/>
	<rect x="200.074" y="19.477" fill="#64BC46" width="3.85" height="3.853"/>
	<rect x="184.674" y="15.605" fill="#64BC46" width="3.851" height="3.855"/>
	<rect x="188.525" y="15.605" fill="#64BC46" width="3.85" height="3.855"/>
	<rect x="176.981" y="19.477" fill="#64BC46" width="3.851" height="3.853"/>
	<rect x="176.981" y="15.605" fill="#64BC46" width="3.851" height="3.855"/>
	<rect x="180.832" y="15.605" fill="#64BC46" width="3.85" height="3.855"/>
	<rect x="192.374" y="15.605" fill="#64BC46" width="3.85" height="3.855"/>
	<rect x="200.074" y="15.605" fill="#64BC46" width="3.85" height="3.855"/>
	<rect x="192.374" y="11.739" fill="#64BC46" width="3.85" height="3.855"/>
	<rect x="200.074" y="11.739" fill="#64BC46" width="3.85" height="3.855"/>
	<rect x="192.374" y="7.886" fill="#64BC46" width="3.85" height="3.853"/>
	<rect x="196.224" y="7.886" fill="#64BC46" width="3.85" height="3.853"/>
</g>
<rect x="200.074" y="7.886" fill="#64BC46" width="3.85" height="3.853"/>
<g>
	<rect x="180.828" y="25.815" fill="#FFFFFF" width="3.85" height="3.855"/>
	<rect x="192.378" y="25.78" fill="#FFFFFF" width="3.851" height="3.854"/>
	<rect x="184.678" y="25.78" fill="#FFFFFF" width="3.85" height="3.854"/>
	<rect x="176.978" y="25.78" fill="#FFFFFF" width="3.85" height="3.854"/>
	<rect x="192.378" y="29.651" fill="#FFFFFF" width="3.851" height="3.854"/>
	<rect x="188.528" y="29.651" fill="#FFFFFF" width="3.85" height="3.854"/>
	<rect x="200.071" y="25.78" fill="#FFFFFF" width="3.85" height="3.854"/>
	<rect x="200.071" y="29.651" fill="#FFFFFF" width="3.85" height="3.854"/>
	<rect x="196.221" y="29.651" fill="#FFFFFF" width="3.85" height="3.854"/>
	<rect x="184.678" y="29.651" fill="#FFFFFF" width="3.85" height="3.854"/>
	<rect x="176.978" y="29.651" fill="#FFFFFF" width="3.85" height="3.854"/>
	<rect x="184.678" y="33.516" fill="#FFFFFF" width="3.85" height="3.855"/>
	<rect x="176.978" y="33.516" fill="#FFFFFF" width="3.85" height="3.855"/>
	<rect x="184.678" y="37.37" fill="#FFFFFF" width="3.85" height="3.855"/>
	<rect x="180.828" y="37.37" fill="#FFFFFF" width="3.85" height="3.855"/>
</g>
<rect x="176.978" y="37.37" fill="#FFFFFF" width="3.85" height="3.855"/>
<polygon fill="#FFFFFF" points="216.059,9.177 208.409,9.177 208.409,16.837 208.409,24.487 208.409,32.137 208.409,39.796 
	216.059,39.796 223.724,39.796 231.372,39.796 231.372,32.137 223.724,32.137 216.059,32.137 216.059,24.487 216.059,16.837 
	223.724,16.837 231.372,16.837 231.372,9.177 223.724,9.177 "/>
<path fill="#FFFFFF" d="M246.671,9.177h-7.649v7.66v7.65v7.65v7.659h7.649v-7.659h7.665v-7.64h7.648v-7.661v-7.66h-7.648H246.671z
	 M254.334,24.478h-7.663v-7.641h7.663V24.478z"/>
<rect x="254.334" y="32.137" fill="#FFFFFF" width="7.65" height="7.659"/>
<polygon fill="#FFFFFF" points="284.948,16.837 284.948,24.478 277.3,24.478 277.3,16.829 277.284,16.829 277.284,9.177 
	269.635,9.177 269.635,16.829 269.635,16.837 269.635,24.478 269.635,32.137 277.284,32.137 277.3,32.137 284.948,32.137 
	284.948,39.796 292.598,39.796 292.598,32.137 292.598,24.487 292.598,16.837 292.598,9.177 284.948,9.177 "/>
<path fill="#FFFFFF" d="M307.895,9.177h-7.648v7.66v7.65v7.65v7.659h7.648v-7.659h7.666h7.648v-7.659v-7.641v-0.008V9.177h-7.648
	H307.895z M315.561,24.478h-7.666v-7.641h7.666V24.478z"/>
<polygon fill="#FFFFFF" points="338.512,9.177 330.859,9.177 330.859,16.837 338.512,16.837 338.523,16.837 338.523,24.487 
	338.523,32.137 338.523,39.796 346.172,39.796 346.172,32.137 346.172,24.487 346.172,16.837 353.825,16.837 353.825,9.177 
	346.172,9.177 "/>
<path fill="#FFFFFF" d="M423.312,9.117h-7.65v7.646v7.649v7.663v7.657h7.65v-7.657h7.667v7.657h7.647v-7.657v-7.663v-7.649V9.117
	h-7.647H423.312z M430.979,24.413h-7.667v-7.649h7.667V24.413z"/>
<path fill="#FFFFFF" d="M392.701,9.117h-7.65v7.646v7.649v7.663v7.657h7.65v-7.657h7.663h7.648v-7.663v-7.649v-0.009V9.117h-7.648
	H392.701z M400.364,24.413h-7.662v-7.649h7.662V24.413z"/>
<polygon fill="#FFFFFF" points="484.538,9.117 476.89,9.117 476.89,16.764 484.538,16.764 484.555,16.764 484.555,24.413 
	484.555,32.075 484.555,39.732 492.205,39.732 492.205,32.075 492.205,24.413 492.205,16.764 499.852,16.764 499.852,9.117 
	492.205,9.117 "/>
<path fill="#FFFFFF" d="M453.927,9.117h-7.648v7.646v7.649v7.663v7.657h7.648v-7.657h7.665v-7.652h7.647v-7.649v-0.01V9.117h-7.647
	H453.927L453.927,9.117z M461.592,16.773v7.639h-7.665v-7.649h7.665V16.773z"/>
<rect x="461.591" y="32.075" fill="#FFFFFF" width="7.648" height="7.657"/>
<polygon fill="#FFFFFF" points="522.817,9.117 522.817,16.764 522.817,24.413 515.167,24.413 515.167,16.753 515.15,16.753 
	515.15,9.117 507.502,9.117 507.502,16.753 507.502,16.764 507.502,24.413 507.502,32.075 515.15,32.075 515.167,32.075 
	522.817,32.075 522.817,39.732 530.464,39.732 530.464,32.075 530.464,24.413 530.464,16.764 530.464,9.117 "/>
<rect x="364.452" y="32.066" fill="#64BC46" width="7.648" height="7.66"/>
<rect x="372.1" y="32.137" fill="#64BC46" width="7.649" height="7.659"/>
<rect x="356.804" y="32.137" fill="#64BC46" width="7.646" height="7.659"/>
<rect x="372.1" y="24.456" fill="#64BC46" width="7.649" height="7.66"/>
<rect x="356.804" y="24.456" fill="#64BC46" width="7.646" height="7.66"/>
<rect x="372.1" y="16.766" fill="#64BC46" width="7.649" height="7.659"/>
<rect x="356.804" y="16.766" fill="#64BC46" width="7.646" height="7.659"/>
<rect x="372.1" y="9.106" fill="#64BC46" width="7.649" height="7.66"/>
<rect x="364.452" y="9.106" fill="#64BC46" width="7.648" height="7.66"/>
<rect x="356.804" y="9.106" fill="#64BC46" width="7.646" height="7.66"/>
<g>
	<g>
		<rect x="540.829" y="25.815" fill="#64BC46" width="3.85" height="3.855"/>
		<rect x="552.378" y="25.78" fill="#64BC46" width="3.851" height="3.853"/>
		<rect x="544.679" y="25.78" fill="#64BC46" width="3.85" height="3.853"/>
		<rect x="536.978" y="25.78" fill="#64BC46" width="3.85" height="3.853"/>
		<rect x="552.378" y="29.65" fill="#64BC46" width="3.851" height="3.855"/>
		<rect x="548.528" y="29.65" fill="#64BC46" width="3.85" height="3.855"/>
		<rect x="560.071" y="25.78" fill="#64BC46" width="3.851" height="3.853"/>
		<rect x="560.071" y="29.65" fill="#64BC46" width="3.851" height="3.855"/>
		<rect x="556.221" y="29.65" fill="#64BC46" width="3.85" height="3.855"/>
		<rect x="544.679" y="29.65" fill="#64BC46" width="3.85" height="3.855"/>
		<rect x="536.978" y="29.65" fill="#64BC46" width="3.85" height="3.855"/>
		<rect x="544.679" y="33.517" fill="#64BC46" width="3.85" height="3.855"/>
		<rect x="536.978" y="33.517" fill="#64BC46" width="3.85" height="3.855"/>
		<rect x="544.679" y="37.372" fill="#64BC46" width="3.85" height="3.853"/>
		<rect x="540.829" y="37.372" fill="#64BC46" width="3.85" height="3.853"/>
	</g>
	<rect x="536.978" y="37.372" fill="#64BC46" width="3.85" height="3.853"/>
	<g>
		<rect x="556.225" y="19.441" fill="#FFFFFF" width="3.85" height="3.855"/>
		<rect x="544.674" y="19.478" fill="#FFFFFF" width="3.851" height="3.854"/>
		<rect x="552.375" y="19.478" fill="#FFFFFF" width="3.85" height="3.854"/>
		<rect x="560.075" y="19.478" fill="#FFFFFF" width="3.85" height="3.854"/>
		<rect x="544.674" y="15.606" fill="#FFFFFF" width="3.851" height="3.854"/>
		<rect x="548.525" y="15.606" fill="#FFFFFF" width="3.85" height="3.854"/>
		<rect x="536.982" y="19.478" fill="#FFFFFF" width="3.85" height="3.854"/>
		<rect x="536.982" y="15.606" fill="#FFFFFF" width="3.85" height="3.854"/>
		<rect x="540.832" y="15.606" fill="#FFFFFF" width="3.85" height="3.854"/>
		<rect x="552.375" y="15.606" fill="#FFFFFF" width="3.85" height="3.854"/>
		<rect x="560.075" y="15.606" fill="#FFFFFF" width="3.85" height="3.854"/>
		<rect x="552.375" y="11.741" fill="#FFFFFF" width="3.85" height="3.855"/>
		<rect x="560.075" y="11.741" fill="#FFFFFF" width="3.85" height="3.855"/>
		<rect x="552.375" y="7.886" fill="#FFFFFF" width="3.85" height="3.855"/>
		<rect x="556.225" y="7.886" fill="#FFFFFF" width="3.85" height="3.855"/>
	</g>
	<rect x="560.075" y="7.886" fill="#FFFFFF" width="3.85" height="3.855"/>
</g>
</svg>
